<svg xmlns="http://www.w3.org/2000/svg"><defs><style>.cls-1{fill:#7c53bf;}.cls-2{fill:#5f3f94;}.cls-3{fill:#9066d6;}.cls-4{fill:#7850ba;}.cls-5{fill:#ae88ec;}.cls-6{fill:#9d66f8;}.cls-7{fill:#904dff;}.cls-8{fill:#9d62ff;}</style></defs><title>Artboard 1</title><path id="path1020" class="cls-1" d="M135,139H.36A134.65,134.65,0,0,0,135,273.65Z"/><path id="path1022" class="cls-2" d="M139,139V273.65A134.66,134.66,0,0,0,273.65,139Z"/><path id="path1024" class="cls-3" d="M135,135V.35A134.65,134.65,0,0,0,.36,135Z"/><path id="path1026" class="cls-4" d="M139,135H273.65A134.66,134.66,0,0,0,139,.35Z"/><path id="path1032" class="cls-5" d="M137,46.8,46.8,137H137Z"/><path id="path1034" class="cls-6" d="M227.2,137,137,46.8V137Z"/><path id="path1036" class="cls-7" d="M137,227.2,227.2,137H137Z"/><path id="path1038" class="cls-8" d="M46.8,137,137,227.2V137Z"/></svg>