<svg width="419" height="125" viewBox="0 0 419 125" fill="none" xmlns="http://www.w3.org/2000/svg">
<path d="M161.014 86.7643C155.194 86.7643 150.604 85.5343 147.244 83.0743C143.944 80.5543 142.294 77.0743 142.294 72.6343V70.7443C142.294 70.1443 142.594 69.8443 143.194 69.8443H147.604C148.204 69.8443 148.504 70.1443 148.504 70.7443V72.0943C148.504 74.7943 149.644 76.9843 151.924 78.6643C154.204 80.3443 157.414 81.1843 161.554 81.1843C165.274 81.1843 168.124 80.4343 170.104 78.9343C172.084 77.4343 173.074 75.3943 173.074 72.8143C173.074 70.5943 172.084 68.7343 170.104 67.2343C168.124 65.7343 164.704 64.0243 159.844 62.1043C155.704 60.6643 152.554 59.4343 150.394 58.4143C148.294 57.3943 146.554 56.0143 145.174 54.2743C143.794 52.4743 143.104 50.1643 143.104 47.3443C143.104 42.9643 144.634 39.5743 147.694 37.1743C150.754 34.7743 155.074 33.5743 160.654 33.5743C166.474 33.5743 170.974 34.8943 174.154 37.5343C177.394 40.1143 179.014 43.6543 179.014 48.1543V49.3243C179.014 49.9243 178.714 50.2243 178.114 50.2243H173.614C173.014 50.2243 172.714 49.9243 172.714 49.3243V48.4243C172.714 45.7243 171.634 43.5343 169.474 41.8543C167.374 40.1143 164.314 39.2443 160.294 39.2443C156.814 39.2443 154.114 39.9343 152.194 41.3143C150.334 42.6343 149.404 44.5843 149.404 47.1643C149.404 48.7843 149.824 50.1343 150.664 51.2143C151.564 52.2343 152.734 53.1043 154.174 53.8243C155.674 54.4843 158.134 55.4743 161.554 56.7943C165.694 58.2343 168.964 59.5543 171.364 60.7543C173.764 61.9543 175.714 63.5143 177.214 65.4343C178.774 67.2943 179.554 69.6643 179.554 72.5443C179.554 76.9243 177.934 80.4043 174.694 82.9843C171.454 85.5043 166.894 86.7643 161.014 86.7643Z" fill="black"/>
<path d="M228.056 34.2043C228.656 34.2043 228.956 34.5043 228.956 35.1043V38.9743C228.956 39.5743 228.656 39.8743 228.056 39.8743H213.116C212.876 39.8743 212.756 39.9943 212.756 40.2343V85.2343C212.756 85.8343 212.456 86.1343 211.856 86.1343H207.266C206.666 86.1343 206.366 85.8343 206.366 85.2343V40.2343C206.366 39.9943 206.246 39.8743 206.006 39.8743H191.516C190.916 39.8743 190.616 39.5743 190.616 38.9743V35.1043C190.616 34.5043 190.916 34.2043 191.516 34.2043H228.056Z" fill="black"/>
<path d="M273.426 86.1343C272.886 86.1343 272.526 85.9243 272.346 85.5043L261.366 63.4543C261.306 63.2743 261.186 63.1843 261.006 63.1843H249.306C249.066 63.1843 248.946 63.3043 248.946 63.5443V85.2343C248.946 85.8343 248.646 86.1343 248.046 86.1343H243.456C242.856 86.1343 242.556 85.8343 242.556 85.2343V35.0143C242.556 34.4143 242.856 34.1143 243.456 34.1143H263.346C267.906 34.1143 271.566 35.4643 274.326 38.1643C277.086 40.8643 278.466 44.4043 278.466 48.7843C278.466 52.3243 277.506 55.3243 275.586 57.7843C273.666 60.2443 271.086 61.8643 267.846 62.6443C267.546 62.7643 267.456 62.9143 267.576 63.0943L278.916 85.0543C278.976 85.1743 279.006 85.3243 279.006 85.5043C279.006 85.9243 278.766 86.1343 278.286 86.1343H273.426ZM249.306 39.6943C249.066 39.6943 248.946 39.8143 248.946 40.0543V57.6943C248.946 57.9343 249.066 58.0543 249.306 58.0543H262.716C265.536 58.0543 267.816 57.2143 269.556 55.5343C271.296 53.8543 272.166 51.6643 272.166 48.9643C272.166 46.2043 271.296 43.9843 269.556 42.3043C267.816 40.5643 265.536 39.6943 262.716 39.6943H249.306Z" fill="black"/>
<path d="M299.214 86.1343C298.614 86.1343 298.314 85.8343 298.314 85.2343V35.1943C298.314 34.5943 298.614 34.2943 299.214 34.2943H303.804C304.404 34.2943 304.704 34.5943 304.704 35.1943V85.2343C304.704 85.8343 304.404 86.1343 303.804 86.1343H299.214Z" fill="black"/>
<path d="M328.253 86.1343C327.653 86.1343 327.353 85.8343 327.353 85.2343V35.1043C327.353 34.5043 327.653 34.2043 328.253 34.2043H346.523C351.683 34.2043 355.823 35.5543 358.943 38.2543C362.063 40.8943 363.623 44.4343 363.623 48.8743V71.4643C363.623 75.9643 362.063 79.5343 358.943 82.1743C355.883 84.8143 351.743 86.1343 346.523 86.1343H328.253ZM333.743 80.1943C333.743 80.4343 333.863 80.5543 334.103 80.5543H346.793C349.973 80.5543 352.493 79.6543 354.353 77.8543C356.273 76.0543 357.233 73.6543 357.233 70.6543V49.7743C357.233 46.7143 356.273 44.3143 354.353 42.5743C352.493 40.7743 349.973 39.8743 346.793 39.8743H334.103C333.863 39.8743 333.743 39.9943 333.743 40.2343V80.1943Z" fill="black"/>
<path d="M418.37 38.9743C418.37 39.5743 418.07 39.8743 417.47 39.8743H389.84C389.6 39.8743 389.48 39.9943 389.48 40.2343V56.8843C389.48 57.1243 389.6 57.2443 389.84 57.2443H409.01C409.61 57.2443 409.91 57.5443 409.91 58.1443V61.9243C409.91 62.5243 409.61 62.8243 409.01 62.8243H389.84C389.6 62.8243 389.48 62.9443 389.48 63.1843V80.1943C389.48 80.4343 389.6 80.5543 389.84 80.5543H417.47C418.07 80.5543 418.37 80.8543 418.37 81.4543V85.2343C418.37 85.8343 418.07 86.1343 417.47 86.1343H383.99C383.39 86.1343 383.09 85.8343 383.09 85.2343V35.1943C383.09 34.5943 383.39 34.2943 383.99 34.2943H417.47C418.07 34.2943 418.37 34.5943 418.37 35.1943V38.9743Z" fill="black"/>
<path d="M3.41175 30.5046L55.2038 0L104.889 29.1649L53.0925 59.6668L3.41175 30.5046Z" fill="black"/>
<path d="M1.18387 60.9401V34.3657L50.9227 63.562V90.1365L1.18387 60.9401Z" fill="black"/>
<path d="M55.2613 90.1362V63.562L80.1306 48.9638L102.766 62.251L55.2613 90.1362Z" fill="black"/>
<path d="M105 90.1362L84.5335 78.1225L105 66.1088V90.1362Z" fill="black"/>
<path d="M52.9645 125L0 94.0908L25.0476 79.9563L53.0918 96.5785L80.1285 80.7081L104.389 94.7652L52.9645 125Z" fill="black"/>
</svg>
