<svg id="svg8" xmlns="http://www.w3.org/2000/svg" viewBox="0 0 1147.79 269.29"><path d="M224.84,134.65h0l-90.2-90.2v90.2h90.2l-90.2,90.19L44.45,134.65l90.19-90.2V0A134.64,134.64,0,0,0,0,134.65H0a134.65,134.65,0,0,0,269.29,0Z" style="fill:#fff"/><path d="M326.14,153.7,346,142.18c3.6,8.36,9.79,14,21.17,14,10.94,0,13.67-4.32,13.67-8.21,0-6.19-5.75-8.64-20.87-12.81s-29.67-11.38-29.67-30.67,16.42-30.67,33.84-30.67c16.56,0,29.52,7.92,36.86,22.75l-19.43,11.37c-3.46-7.2-8.21-11.66-17.43-11.66-7.2,0-10.8,3.6-10.8,7.63,0,4.61,2.45,7.78,18.15,12.53,15.26,4.61,32.39,9.93,32.39,31.25,0,19.44-15.55,31-37.43,31C345.29,178.62,331.75,168.54,326.14,153.7Z" style="fill:#fff"/><path d="M474.45,75.8V176.6h-23V75.8Z" style="fill:#fff"/><path d="M586.77,154.42V176.6h-59V75.8h23v78.62Z" style="fill:#fff"/><path d="M688.15,176.6l-32.26-46.66V176.6h-23V75.8h23v43.78L686.71,75.8h26.21l-34,49.1,35.43,51.7Z" style="fill:#fff"/><path d="M756.84,164.94a13.68,13.68,0,1,1,13.68,13.68A13.76,13.76,0,0,1,756.84,164.94Z" style="fill:#fff"/><path d="M914.52,75.8V176.6H897.24l-38.88-54.72V176.6h-23V75.8H852.6l38.88,54.72V75.8Z" style="fill:#fff"/><path d="M1031.16,154.42V176.6H967.8V75.8h62.64V98h-39.6v16.7h36v21.89h-36v17.85Z" style="fill:#fff"/><path d="M1147.79,98h-25.91V176.6h-23V98h-25.92V75.8h74.87Z" style="fill:#fff"/></svg>