<?xml version="1.0" encoding="UTF-8" standalone="no"?><svg xmlns="http://www.w3.org/2000/svg" xmlns:xlink="http://www.w3.org/1999/xlink" contentScriptType="application/ecmascript" contentStyleType="text/css" height="716.6667px" preserveAspectRatio="none" style="width:1119px;height:716px;background:#00000000;" version="1.1" viewBox="0 0 1119 716" width="1119.7917px" zoomAndPan="magnify"><defs><linearGradient id="g18zpavgajboil0" x1="50%" x2="50%" y1="0%" y2="100%"><stop offset="0%" stop-color="#3A3A3A"/><stop offset="100%" stop-color="#262626"/></linearGradient><linearGradient id="g18zpavgajboil1" x1="50%" x2="50%" y1="0%" y2="100%"><stop offset="0%" stop-color="#3A3A3A"/><stop offset="100%" stop-color="#484848"/></linearGradient></defs><g><!--MD5=[0b89f7d34c26fffbb81ea7301eb9df33]
cluster Interfaces--><polygon points="84.375,6.25,171.875,6.25,179.1667,38.1083,459.375,38.1083,459.375,400,84.375,400,84.375,6.25" style="stroke:#262626;stroke-width:2.0833333333333335;fill:none;"/><line style="stroke:#262626;stroke-width:2.0833333333333335;fill:none;" x1="84.375" x2="179.1667" y1="38.1083" y2="38.1083"/><text fill="#FFF200" font-family="Verdana" font-size="12.5" font-weight="bold" lengthAdjust="spacing" textLength="70.8333" x="93.75" y="26.1088">Interfaces</text><!--MD5=[63593e144e338671ade4ed9749ee6fea]
cluster Structures--><polygon points="16.6667,425,105.2083,425,112.5,456.8583,1102.0833,456.8583,1102.0833,709.375,16.6667,709.375,16.6667,425" style="stroke:#262626;stroke-width:2.0833333333333335;fill:none;"/><line style="stroke:#262626;stroke-width:2.0833333333333335;fill:none;" x1="16.6667" x2="112.5" y1="456.8583" y2="456.8583"/><text fill="#FFF200" font-family="Verdana" font-size="12.5" font-weight="bold" lengthAdjust="spacing" textLength="71.875" x="26.0417" y="444.8588">Structures</text><!--MD5=[9474ab3106881068beedb816cbeb3907]
class IStructuredType--><rect codeLine="3" fill="url(#g18zpavgajboil0)" height="77.034" id="IStructuredType" rx="4.1667" ry="4.1667" style="stroke:#262626;stroke-width:1.0416666666666667;" width="219.7917" x="203.6458" y="51.0417"/><rect fill="url(#g18zpavgajboil1)" height="36.025" rx="4.1667" ry="4.1667" style="stroke:url(#g18zpavgajboil1);stroke-width:1.0416666666666667;" width="219.7917" x="203.6458" y="51.0417"/><rect fill="url(#g18zpavgajboil1)" height="4.1667" style="stroke:url(#g18zpavgajboil1);stroke-width:1.0416666666666667;" width="219.7917" x="203.6458" y="82.9"/><rect codeLine="3" fill="none" height="77.034" id="IStructuredType" rx="4.1667" ry="4.1667" style="stroke:#262626;stroke-width:1.0416666666666667;" width="219.7917" x="203.6458" y="51.0417"/><ellipse cx="253.6458" cy="69.0542" fill="#FF3333" rx="10.4167" ry="10.4167" style="stroke:#CC0000;stroke-width:1.0416666666666667;"/><path d="M254.6875,65.9292 L254.6875,72.1792 L255.7292,72.1792 L256.3802,72.1792 L256.7708,72.4233 L256.7708,72.7 L256.7708,72.9767 L256.3802,73.2208 L255.7292,73.2208 L251.5625,73.2208 L250.9115,73.2208 L250.5208,72.9767 L250.5208,72.7 L250.5208,72.4233 L250.9115,72.1792 L251.5625,72.1792 L252.6042,72.1792 L252.6042,65.9292 L251.5625,65.9292 L250.9115,65.9292 L250.5208,65.685 L250.5208,65.4083 L250.5208,65.1316 L250.9115,64.8875 L251.5625,64.8875 L255.7292,64.8875 L256.3802,64.8875 L256.7708,65.1316 L256.7708,65.4083 L256.7708,65.685 L256.3802,65.9292 L255.7292,65.9292 L254.6875,65.9292 Z " fill="#000000"/><text fill="#FFF200" font-family="Verdana" font-size="12.5" font-style="italic" lengthAdjust="spacing" textLength="101.0417" x="278.6458" y="74.0255">IStructuredType</text><line style="stroke:#262626;stroke-width:1.0416666666666667;" x1="204.6875" x2="422.3958" y1="87.0667" y2="87.0667"/><line style="stroke:#262626;stroke-width:1.0416666666666667;" x1="204.6875" x2="422.3958" y1="95.4" y2="95.4"/><ellipse cx="215.1042" cy="106.8583" fill="#84BE84" rx="3.125" ry="3.125" style="stroke:#038048;stroke-width:1.0416666666666667;"/><text fill="#FFF200" font-family="Verdana" font-size="11.4583" lengthAdjust="spacing" textLength="183.3333" x="228.6458" y="116.2949">StructureType StructureType()</text><!--MD5=[28226e176211d49778df3cbcc012322b]
class IChainable--><rect codeLine="7" fill="url(#g18zpavgajboil0)" height="77.034" id="IChainable" rx="4.1667" ry="4.1667" style="stroke:#262626;stroke-width:1.0416666666666667;" width="257.2917" x="184.8958" y="190.625"/><rect fill="url(#g18zpavgajboil1)" height="36.025" rx="4.1667" ry="4.1667" style="stroke:url(#g18zpavgajboil1);stroke-width:1.0416666666666667;" width="257.2917" x="184.8958" y="190.625"/><rect fill="url(#g18zpavgajboil1)" height="4.1667" style="stroke:url(#g18zpavgajboil1);stroke-width:1.0416666666666667;" width="257.2917" x="184.8958" y="222.4833"/><rect codeLine="7" fill="none" height="77.034" id="IChainable" rx="4.1667" ry="4.1667" style="stroke:#262626;stroke-width:1.0416666666666667;" width="257.2917" x="184.8958" y="190.625"/><ellipse cx="271.3542" cy="208.6375" fill="#FF3333" rx="10.4167" ry="10.4167" style="stroke:#CC0000;stroke-width:1.0416666666666667;"/><path d="M272.3958,205.5125 L272.3958,211.7625 L273.4375,211.7625 L274.0885,211.7625 L274.4792,212.0066 L274.4792,212.2833 L274.4792,212.56 L274.0885,212.8042 L273.4375,212.8042 L269.2708,212.8042 L268.6198,212.8042 L268.2292,212.56 L268.2292,212.2833 L268.2292,212.0066 L268.6198,211.7625 L269.2708,211.7625 L270.3125,211.7625 L270.3125,205.5125 L269.2708,205.5125 L268.6198,205.5125 L268.2292,205.2684 L268.2292,204.9917 L268.2292,204.715 L268.6198,204.4708 L269.2708,204.4708 L273.4375,204.4708 L274.0885,204.4708 L274.4792,204.715 L274.4792,204.9917 L274.4792,205.2684 L274.0885,205.5125 L273.4375,205.5125 L272.3958,205.5125 Z " fill="#000000"/><text fill="#FFF200" font-family="Verdana" font-size="12.5" font-style="italic" lengthAdjust="spacing" textLength="65.625" x="296.3542" y="213.6088">IChainable</text><line style="stroke:#262626;stroke-width:1.0416666666666667;" x1="185.9375" x2="441.1458" y1="226.65" y2="226.65"/><ellipse cx="196.3542" cy="238.1083" rx="3.125" ry="3.125" style="stroke:#038048;stroke-width:1.0416666666666667;fill:none;"/><text fill="#FFF200" font-family="Verdana" font-size="11.4583" lengthAdjust="spacing" textLength="220.8333" x="209.8958" y="247.5449">BaseInStructure* PNext { get; set; }</text><line style="stroke:#262626;stroke-width:1.0416666666666667;" x1="185.9375" x2="441.1458" y1="259.3257" y2="259.3257"/><!--MD5=[81dba37fee49f4843c69b9ba20d333c3]
class IExtendsChain--><rect codeLine="11" fill="url(#g18zpavgajboil0)" height="52.6917" id="IExtendsChain" rx="4.1667" ry="4.1667" style="stroke:#262626;stroke-width:1.0416666666666667;" width="190.625" x="101.5625" y="330.2083"/><rect fill="url(#g18zpavgajboil1)" height="36.025" rx="4.1667" ry="4.1667" style="stroke:url(#g18zpavgajboil1);stroke-width:1.0416666666666667;" width="190.625" x="101.5625" y="330.2083"/><rect fill="url(#g18zpavgajboil1)" height="4.1667" style="stroke:url(#g18zpavgajboil1);stroke-width:1.0416666666666667;" width="190.625" x="101.5625" y="362.0667"/><rect codeLine="11" fill="none" height="52.6917" id="IExtendsChain" rx="4.1667" ry="4.1667" style="stroke:#262626;stroke-width:1.0416666666666667;" width="190.625" x="101.5625" y="330.2083"/><ellipse cx="116.1458" cy="348.2208" fill="#FF3333" rx="10.4167" ry="10.4167" style="stroke:#CC0000;stroke-width:1.0416666666666667;"/><path d="M117.1875,345.0958 L117.1875,351.3458 L118.2292,351.3458 L118.8802,351.3458 L119.2708,351.59 L119.2708,351.8667 L119.2708,352.1434 L118.8802,352.3875 L118.2292,352.3875 L114.0625,352.3875 L113.4115,352.3875 L113.0208,352.1434 L113.0208,351.8667 L113.0208,351.59 L113.4115,351.3458 L114.0625,351.3458 L115.1042,351.3458 L115.1042,345.0958 L114.0625,345.0958 L113.4115,345.0958 L113.0208,344.8517 L113.0208,344.575 L113.0208,344.2983 L113.4115,344.0542 L114.0625,344.0542 L118.2292,344.0542 L118.8802,344.0542 L119.2708,344.2983 L119.2708,344.575 L119.2708,344.8517 L118.8802,345.0958 L118.2292,345.0958 L117.1875,345.0958 Z " fill="#000000"/><text fill="#FFF200" font-family="Verdana" font-size="12.5" font-style="italic" lengthAdjust="spacing" textLength="91.6667" x="134.8958" y="353.1921">IExtendsChain</text><rect height="27.6917" style="stroke:#484848;stroke-width:1.0416666666666667;fill:none;stroke-dasharray:2.0,2.0;" width="55.2083" x="240.1042" y="327.0833"/><text fill="#484848" font-family="Verdana" font-size="12.5" font-style="italic" lengthAdjust="spacing" textLength="42.7083" x="246.3542" y="345.9005">TChain</text><line style="stroke:#262626;stroke-width:1.0416666666666667;" x1="102.6042" x2="291.1458" y1="366.2333" y2="366.2333"/><line style="stroke:#262626;stroke-width:1.0416666666666667;" x1="102.6042" x2="291.1458" y1="374.5667" y2="374.5667"/><!--MD5=[d612289c3470650051c6f7589518fda4]
class IChainStart--><rect codeLine="14" fill="url(#g18zpavgajboil0)" height="52.6917" id="IChainStart" rx="4.1667" ry="4.1667" style="stroke:#262626;stroke-width:1.0416666666666667;" width="113.5417" x="328.6458" y="330.2083"/><rect fill="url(#g18zpavgajboil1)" height="36.025" rx="4.1667" ry="4.1667" style="stroke:url(#g18zpavgajboil1);stroke-width:1.0416666666666667;" width="113.5417" x="328.6458" y="330.2083"/><rect fill="url(#g18zpavgajboil1)" height="4.1667" style="stroke:url(#g18zpavgajboil1);stroke-width:1.0416666666666667;" width="113.5417" x="328.6458" y="362.0667"/><rect codeLine="14" fill="none" height="52.6917" id="IChainStart" rx="4.1667" ry="4.1667" style="stroke:#262626;stroke-width:1.0416666666666667;" width="113.5417" x="328.6458" y="330.2083"/><ellipse cx="343.2292" cy="348.2208" fill="#FF3333" rx="10.4167" ry="10.4167" style="stroke:#CC0000;stroke-width:1.0416666666666667;"/><path d="M344.2708,345.0958 L344.2708,351.3458 L345.3125,351.3458 L345.9635,351.3458 L346.3542,351.59 L346.3542,351.8667 L346.3542,352.1434 L345.9635,352.3875 L345.3125,352.3875 L341.1458,352.3875 L340.4948,352.3875 L340.1042,352.1434 L340.1042,351.8667 L340.1042,351.59 L340.4948,351.3458 L341.1458,351.3458 L342.1875,351.3458 L342.1875,345.0958 L341.1458,345.0958 L340.4948,345.0958 L340.1042,344.8517 L340.1042,344.575 L340.1042,344.2983 L340.4948,344.0542 L341.1458,344.0542 L345.3125,344.0542 L345.9635,344.0542 L346.3542,344.2983 L346.3542,344.575 L346.3542,344.8517 L345.9635,345.0958 L345.3125,345.0958 L344.2708,345.0958 Z " fill="#000000"/><text fill="#FFF200" font-family="Verdana" font-size="12.5" font-style="italic" lengthAdjust="spacing" textLength="71.875" x="361.9792" y="353.1921">IChainStart</text><line style="stroke:#262626;stroke-width:1.0416666666666667;" x1="329.6875" x2="441.1458" y1="366.2333" y2="366.2333"/><line style="stroke:#262626;stroke-width:1.0416666666666667;" x1="329.6875" x2="441.1458" y1="374.5667" y2="374.5667"/><!--MD5=[198166200025d1cac07ad5ba120f7bdb]
class BaseInStructure--><rect codeLine="24" fill="url(#g18zpavgajboil0)" height="174.4034" id="BaseInStructure" rx="4.1667" ry="4.1667" style="stroke:#262626;stroke-width:1.0416666666666667;" width="326.0417" x="758.8542" y="494.2708"/><rect fill="url(#g18zpavgajboil1)" height="36.025" rx="4.1667" ry="4.1667" style="stroke:url(#g18zpavgajboil1);stroke-width:1.0416666666666667;" width="326.0417" x="758.8542" y="494.2708"/><rect fill="url(#g18zpavgajboil1)" height="4.1667" style="stroke:url(#g18zpavgajboil1);stroke-width:1.0416666666666667;" width="326.0417" x="758.8542" y="526.1292"/><rect codeLine="24" fill="none" height="174.4034" id="BaseInStructure" rx="4.1667" ry="4.1667" style="stroke:#262626;stroke-width:1.0416666666666667;" width="326.0417" x="758.8542" y="494.2708"/><ellipse cx="859.375" cy="512.2833" fill="#3A3A3A" rx="10.4167" ry="10.4167" style="stroke:#565656;stroke-width:1.0416666666666667;"/><path d="M859.375,509.1583 Q859.5866,508.6375 859.8307,508.3771 Q860.0749,508.1167 860.3516,508.1167 Q860.8398,508.1167 861.1491,508.3445 Q861.4583,508.5561 861.4583,509.0607 L861.4583,510.2814 Q861.4583,510.8022 861.3118,511.0301 Q861.1654,511.2417 860.9375,511.2417 Q860.7259,511.2417 860.612,511.0626 Q860.4818,510.8836 860.4167,510.4116 Q860.3841,510.0861 860.2865,509.907 Q860.0911,509.5652 859.7331,509.3699 Q859.3913,509.1583 859.0332,509.1583 L859.1634,509.1583 L857.2917,511.0301 L857.2917,511.0301 L857.2917,511.9415 L857.2917,512.9018 L857.2917,513.5366 L859.1634,515.4083 L859.196,515.4083 Q859.7168,515.4083 860.0911,515.1967 Q860.3027,515.0828 860.5469,514.7085 Q860.6934,514.4969 860.7747,514.4318 Q860.8724,514.3667 860.9701,514.3667 Q861.1654,514.3667 861.3118,514.5457 Q861.4583,514.7247 861.4583,514.9689 Q861.4583,515.213 861.2142,515.4897 Q860.8724,515.8966 860.319,516.1407 Q859.5866,516.45 858.6914,516.45 L858.5449,516.45 L855.2083,514.1551 L855.2083,514.1551 L855.2083,514.1551 L855.2083,512.8693 L855.2083,511.9578 L855.2083,510.4116 L855.2083,510.4116 L858.5449,508.1167 L857.8939,508.1167 Q858.3171,508.1167 858.6751,508.3771 Q859.0495,508.6375 859.375,509.1583 Z " fill="#000000"/><text fill="#FFF200" font-family="Verdana" font-size="12.5" lengthAdjust="spacing" textLength="106.25" x="884.375" y="517.2546">BaseInStructure</text><line style="stroke:#262626;stroke-width:1.0416666666666667;" x1="759.8958" x2="1083.8542" y1="530.2958" y2="530.2958"/><ellipse cx="770.3125" cy="541.7542" rx="3.125" ry="3.125" style="stroke:#038048;stroke-width:1.0416666666666667;fill:none;"/><text fill="#FFF200" font-family="Verdana" font-size="11.4583" lengthAdjust="spacing" textLength="126.0417" x="783.8542" y="551.1907">StructureType SType</text><ellipse cx="770.3125" cy="566.0965" rx="3.125" ry="3.125" style="stroke:#038048;stroke-width:1.0416666666666667;fill:none;"/><text fill="#FFF200" font-family="Verdana" font-size="11.4583" lengthAdjust="spacing" textLength="142.7083" x="783.8542" y="575.533">BaseInStructure* PNext</text><text fill="#FFF200" font-family="Verdana" font-size="11.4583" lengthAdjust="spacing" textLength="0" x="788.0208" y="599.8754"/><ellipse cx="770.3125" cy="614.7812" rx="3.125" ry="3.125" style="stroke:#038048;stroke-width:1.0416666666666667;fill:none;"/><text fill="#FFF200" font-family="Verdana" font-size="11.4583" lengthAdjust="spacing" textLength="289.5833" x="783.8542" y="624.2177">BaseInStructure* IChainable.PNext { get; set; }</text><line style="stroke:#262626;stroke-width:1.0416666666666667;" x1="759.8958" x2="1083.8542" y1="635.9985" y2="635.9985"/><ellipse cx="770.3125" cy="647.4569" fill="#84BE84" rx="3.125" ry="3.125" style="stroke:#038048;stroke-width:1.0416666666666667;"/><text fill="#FFF200" font-family="Verdana" font-size="11.4583" lengthAdjust="spacing" textLength="277.0833" x="783.8542" y="656.8934">StructureType IStructureType.StructureType()</text><!--MD5=[78f54dc7a7d8b013138bbf6b7841de9c]
class PhysicalDeviceFeatures2--><rect codeLine="33" fill="url(#g18zpavgajboil0)" height="198.7457" id="PhysicalDeviceFeatures2" rx="4.1667" ry="4.1667" style="stroke:#262626;stroke-width:1.0416666666666667;" width="326.0417" x="396.3542" y="481.7708"/><rect fill="url(#g18zpavgajboil1)" height="36.025" rx="4.1667" ry="4.1667" style="stroke:url(#g18zpavgajboil1);stroke-width:1.0416666666666667;" width="326.0417" x="396.3542" y="481.7708"/><rect fill="url(#g18zpavgajboil1)" height="4.1667" style="stroke:url(#g18zpavgajboil1);stroke-width:1.0416666666666667;" width="326.0417" x="396.3542" y="513.6292"/><rect codeLine="33" fill="none" height="198.7457" id="PhysicalDeviceFeatures2" rx="4.1667" ry="4.1667" style="stroke:#262626;stroke-width:1.0416666666666667;" width="326.0417" x="396.3542" y="481.7708"/><ellipse cx="469.2708" cy="499.7833" fill="#3A3A3A" rx="10.4167" ry="10.4167" style="stroke:#565656;stroke-width:1.0416666666666667;"/><path d="M469.2708,496.6583 Q469.4824,496.1375 469.7266,495.8771 Q469.9707,495.6167 470.2474,495.6167 Q470.7357,495.6167 471.0449,495.8445 Q471.3542,496.0561 471.3542,496.5607 L471.3542,497.7814 Q471.3542,498.3022 471.2077,498.5301 Q471.0612,498.7417 470.8333,498.7417 Q470.6217,498.7417 470.5078,498.5626 Q470.3776,498.3836 470.3125,497.9116 Q470.2799,497.5861 470.1823,497.407 Q469.987,497.0652 469.6289,496.8699 Q469.2871,496.6583 468.929,496.6583 L469.0592,496.6583 L467.1875,498.5301 L467.1875,498.5301 L467.1875,499.4415 L467.1875,500.4018 L467.1875,501.0366 L469.0592,502.9083 L469.0918,502.9083 Q469.6126,502.9083 469.987,502.6967 Q470.1986,502.5828 470.4427,502.2085 Q470.5892,501.9969 470.6706,501.9318 Q470.7682,501.8667 470.8659,501.8667 Q471.0612,501.8667 471.2077,502.0457 Q471.3542,502.2247 471.3542,502.4689 Q471.3542,502.713 471.11,502.9897 Q470.7682,503.3966 470.2148,503.6407 Q469.4824,503.95 468.5872,503.95 L468.4408,503.95 L465.1042,501.6551 L465.1042,501.6551 L465.1042,501.6551 L465.1042,500.3693 L465.1042,499.4578 L465.1042,497.9116 L465.1042,497.9116 L468.4408,495.6167 L467.7897,495.6167 Q468.2129,495.6167 468.571,495.8771 Q468.9453,496.1375 469.2708,496.6583 Z " fill="#000000"/><text fill="#FFF200" font-family="Verdana" font-size="12.5" lengthAdjust="spacing" textLength="161.4583" x="494.2708" y="504.7546">PhysicalDeviceFeatures2</text><line style="stroke:#262626;stroke-width:1.0416666666666667;" x1="397.3958" x2="721.3542" y1="517.7958" y2="517.7958"/><ellipse cx="407.8125" cy="529.2542" rx="3.125" ry="3.125" style="stroke:#038048;stroke-width:1.0416666666666667;fill:none;"/><text fill="#FFF200" font-family="Verdana" font-size="11.4583" lengthAdjust="spacing" textLength="126.0417" x="421.3542" y="538.6907">StructureType SType</text><ellipse cx="407.8125" cy="553.5965" rx="3.125" ry="3.125" style="stroke:#038048;stroke-width:1.0416666666666667;fill:none;"/><text fill="#FFF200" font-family="Verdana" font-size="11.4583" lengthAdjust="spacing" textLength="142.7083" x="421.3542" y="563.033">BaseInStructure* PNext</text><ellipse cx="407.8125" cy="577.9388" rx="3.125" ry="3.125" style="stroke:#038048;stroke-width:1.0416666666666667;fill:none;"/><text fill="#FFF200" font-family="Verdana" font-size="11.4583" lengthAdjust="spacing" textLength="194.7917" x="421.3542" y="587.3754">PhysicalDeviceFeatures Features</text><text fill="#FFF200" font-family="Verdana" font-size="11.4583" lengthAdjust="spacing" textLength="0" x="425.5208" y="611.7177"/><ellipse cx="407.8125" cy="626.6235" rx="3.125" ry="3.125" style="stroke:#038048;stroke-width:1.0416666666666667;fill:none;"/><text fill="#FFF200" font-family="Verdana" font-size="11.4583" lengthAdjust="spacing" textLength="289.5833" x="421.3542" y="636.0601">BaseInStructure* IChainable.PNext { get; set; }</text><line style="stroke:#262626;stroke-width:1.0416666666666667;" x1="397.3958" x2="721.3542" y1="647.8409" y2="647.8409"/><ellipse cx="407.8125" cy="659.2992" fill="#84BE84" rx="3.125" ry="3.125" style="stroke:#038048;stroke-width:1.0416666666666667;"/><text fill="#FFF200" font-family="Verdana" font-size="11.4583" lengthAdjust="spacing" textLength="277.0833" x="421.3542" y="668.7358">StructureType IStructureType.StructureType()</text><!--MD5=[9e70d2f5772e70e3a729cb02b5e096cf]
class PhysicalDeviceVariablePointersFeatures--><rect codeLine="45" fill="url(#g18zpavgajboil0)" height="223.0881" id="PhysicalDeviceVariablePointersFeatures" rx="4.1667" ry="4.1667" style="stroke:#262626;stroke-width:1.0416666666666667;" width="326.0417" x="33.8542" y="469.7917"/><rect fill="url(#g18zpavgajboil1)" height="36.025" rx="4.1667" ry="4.1667" style="stroke:url(#g18zpavgajboil1);stroke-width:1.0416666666666667;" width="326.0417" x="33.8542" y="469.7917"/><rect fill="url(#g18zpavgajboil1)" height="4.1667" style="stroke:url(#g18zpavgajboil1);stroke-width:1.0416666666666667;" width="326.0417" x="33.8542" y="501.65"/><rect codeLine="45" fill="none" height="223.0881" id="PhysicalDeviceVariablePointersFeatures" rx="4.1667" ry="4.1667" style="stroke:#262626;stroke-width:1.0416666666666667;" width="326.0417" x="33.8542" y="469.7917"/><ellipse cx="59.2188" cy="487.8042" fill="#3A3A3A" rx="10.4167" ry="10.4167" style="stroke:#565656;stroke-width:1.0416666666666667;"/><path d="M59.2188,484.6792 Q59.4303,484.1583 59.6745,483.8979 Q59.9186,483.6375 60.1953,483.6375 Q60.6836,483.6375 60.9928,483.8654 Q61.3021,484.0769 61.3021,484.5815 L61.3021,485.8022 Q61.3021,486.323 61.1556,486.5509 Q61.0091,486.7625 60.7813,486.7625 Q60.5697,486.7625 60.4557,486.5835 Q60.3255,486.4044 60.2604,485.9324 Q60.2279,485.6069 60.1302,485.4279 Q59.9349,485.0861 59.5768,484.8907 Q59.235,484.6792 58.877,484.6792 L59.0072,484.6792 L57.1354,486.5509 L57.1354,486.5509 L57.1354,487.4624 L57.1354,488.4226 L57.1354,489.0574 L59.0072,490.9292 L59.0397,490.9292 Q59.5605,490.9292 59.9349,490.7176 Q60.1465,490.6036 60.3906,490.2293 Q60.5371,490.0177 60.6185,489.9526 Q60.7161,489.8875 60.8138,489.8875 Q61.0091,489.8875 61.1556,490.0665 Q61.3021,490.2456 61.3021,490.4897 Q61.3021,490.7338 61.0579,491.0105 Q60.7161,491.4174 60.1628,491.6616 Q59.4303,491.9708 58.5352,491.9708 L58.3887,491.9708 L55.0521,489.6759 L55.0521,489.6759 L55.0521,489.6759 L55.0521,488.3901 L55.0521,487.4786 L55.0521,485.9324 L55.0521,485.9324 L58.3887,483.6375 L57.7376,483.6375 Q58.1608,483.6375 58.5189,483.8979 Q58.8932,484.1583 59.2188,484.6792 Z " fill="#000000"/><text fill="#FFF200" font-family="Verdana" font-size="12.5" lengthAdjust="spacing" textLength="260.4167" x="80.3646" y="492.7755">PhysicalDeviceVariablePointersFeatures</text><line style="stroke:#262626;stroke-width:1.0416666666666667;" x1="34.8958" x2="358.8542" y1="505.8167" y2="505.8167"/><ellipse cx="45.3125" cy="517.275" rx="3.125" ry="3.125" style="stroke:#038048;stroke-width:1.0416666666666667;fill:none;"/><text fill="#FFF200" font-family="Verdana" font-size="11.4583" lengthAdjust="spacing" textLength="126.0417" x="58.8542" y="526.7115">StructureType SType</text><ellipse cx="45.3125" cy="541.6173" rx="3.125" ry="3.125" style="stroke:#038048;stroke-width:1.0416666666666667;fill:none;"/><text fill="#FFF200" font-family="Verdana" font-size="11.4583" lengthAdjust="spacing" textLength="142.7083" x="58.8542" y="551.0539">BaseInStructure* PNext</text><ellipse cx="45.3125" cy="565.9597" rx="3.125" ry="3.125" style="stroke:#038048;stroke-width:1.0416666666666667;fill:none;"/><text fill="#FFF200" font-family="Verdana" font-size="11.4583" lengthAdjust="spacing" textLength="225" x="58.8542" y="575.3962">Bool32 VariablePointersStorageBuffer</text><ellipse cx="45.3125" cy="590.302" rx="3.125" ry="3.125" style="stroke:#038048;stroke-width:1.0416666666666667;fill:none;"/><text fill="#FFF200" font-family="Verdana" font-size="11.4583" lengthAdjust="spacing" textLength="141.6667" x="58.8542" y="599.7386">Bool32 VariablePointers</text><text fill="#FFF200" font-family="Verdana" font-size="11.4583" lengthAdjust="spacing" textLength="0" x="63.0208" y="624.0809"/><ellipse cx="45.3125" cy="638.9867" rx="3.125" ry="3.125" style="stroke:#038048;stroke-width:1.0416666666666667;fill:none;"/><text fill="#FFF200" font-family="Verdana" font-size="11.4583" lengthAdjust="spacing" textLength="289.5833" x="58.8542" y="648.4233">BaseInStructure* IChainable.PNext { get; set; }</text><line style="stroke:#262626;stroke-width:1.0416666666666667;" x1="34.8958" x2="358.8542" y1="660.2041" y2="660.2041"/><ellipse cx="45.3125" cy="671.6624" fill="#84BE84" rx="3.125" ry="3.125" style="stroke:#038048;stroke-width:1.0416666666666667;"/><text fill="#FFF200" font-family="Verdana" font-size="11.4583" lengthAdjust="spacing" textLength="277.0833" x="58.8542" y="681.0989">StructureType IStructureType.StructureType()</text><!--MD5=[d3c7132a4e0fc18126a716e02c42ebfb]
reverse link IStructuredType to IChainable--><path codeLine="17" d="M313.5417,149.3542 C313.5417,163.3333 313.5417,177.875 313.5417,190.5938 " fill="none" id="IStructuredType-backto-IChainable" style="stroke:#303030;stroke-width:3.125;"/><polygon fill="none" points="306.25,149.0313,313.5417,128.1979,320.8333,149.0313,306.25,149.0313" style="stroke:#303030;stroke-width:3.125;"/><!--MD5=[e64f9ce9e94610318bd72c002352e658]
reverse link IChainable to IExtendsChain--><path codeLine="19" d="M263.9792,283.5313 C249.0104,299.6458 233.25,316.5938 220.7604,330.0313 " fill="none" id="IChainable-backto-IExtendsChain" style="stroke:#303030;stroke-width:3.125;"/><polygon fill="none" points="259.0104,278.1667,278.5417,267.8646,269.6979,288.0938,259.0104,278.1667" style="stroke:#303030;stroke-width:3.125;"/><!--MD5=[a4b491c0ced2d79079167ded60f81111]
reverse link IChainable to IChainStart--><path codeLine="20" d="M345.5208,286.0521 C354.3021,301.3958 363.4063,317.3021 370.6979,330.0313 " fill="none" id="IChainable-backto-IChainStart" style="stroke:#303030;stroke-width:3.125;"/><polygon fill="none" points="339.1354,289.5729,335.1042,267.8646,351.7917,282.3229,339.1354,289.5729" style="stroke:#303030;stroke-width:3.125;"/><!--MD5=[1dcdf011f6eec3b666da4ddce371724c]
reverse link IChainable to BaseInStructure--><path d="M445.1354,275.0208 C532.5313,307.7604 647.8021,356.8021 740.625,416.6667 C774.8125,438.7188 808.8542,467.2292 838.0417,494.2604 " fill="none" id="IChainable-backto-BaseInStructure" style="stroke:#303030;stroke-width:3.125;stroke-dasharray:7.0,7.0;"/><polygon fill="none" points="442.5417,281.8333,425.5313,267.7708,447.6042,268.1563,442.5417,281.8333" style="stroke:#303030;stroke-width:3.125;"/><!--MD5=[337bdbe0d7c71dd7bd34fd8db04fe2e0]
reverse link IChainStart to PhysicalDeviceFeatures2--><path d="M418.7083,400.3646 C436.75,423.4375 459.8542,452.9792 482.1042,481.4167 " fill="none" id="IChainStart-backto-PhysicalDeviceFeatures2" style="stroke:#303030;stroke-width:3.125;stroke-dasharray:7.0,7.0;"/><polygon fill="none" points="412.8021,404.6667,405.7083,383.7604,424.2917,395.6771,412.8021,404.6667" style="stroke:#303030;stroke-width:3.125;"/><!--MD5=[4a508d696ed432587833753dbbb7a6cf]
reverse link IExtendsChain to PhysicalDeviceFeatures2--><path codeLine="43" d="M265,392.0208 C279.6875,398.2813 295.3333,404.1458 310.4167,408.3333 C339.6354,416.4375 350.5417,404.0729 378.125,416.6667 C412.0521,432.1563 444.0729,456.3229 471.4896,481.3646 " fill="none" id="IExtendsChain-backto-PhysicalDeviceFeatures2" style="stroke:#303030;stroke-width:3.125;stroke-dasharray:7.0,7.0;"/><polygon fill="none" points="261.7292,398.5417,245.7188,383.3542,267.7083,385.2396,261.7292,398.5417" style="stroke:#303030;stroke-width:3.125;"/><!--MD5=[33863ddef8ca3038d2d2bcf45c0fe79f]
reverse link IExtendsChain to PhysicalDeviceVariablePointersFeatures--><path d="M163.2813,403.6042 C158.5521,422.9063 156.2083,446.2917 156.25,469.6458 " fill="none" id="IExtendsChain-backto-PhysicalDeviceVariablePointersFeatures" style="stroke:#303030;stroke-width:3.125;stroke-dasharray:7.0,7.0;"/><polygon fill="none" points="156.3438,401.375,169.6458,383.7604,170.2292,405.8229,156.3438,401.375" style="stroke:#303030;stroke-width:3.125;"/><!--MD5=[33863ddef8ca3038d2d2bcf45c0fe79f]
reverse link IExtendsChain to PhysicalDeviceVariablePointersFeatures--><path codeLine="56" d="M185.8229,404.5417 C184.3229,423.6667 183.5833,446.6771 183.5938,469.6458 " fill="none" id="IExtendsChain-backto-PhysicalDeviceVariablePointersFeatures-1" style="stroke:#303030;stroke-width:3.125;stroke-dasharray:7.0,7.0;"/><polygon fill="none" points="178.5729,403.7292,187.9688,383.7604,193.0833,405.2292,178.5729,403.7292" style="stroke:#303030;stroke-width:3.125;"/><!--MD5=[33863ddef8ca3038d2d2bcf45c0fe79f]
reverse link IExtendsChain to PhysicalDeviceVariablePointersFeatures--><path codeLine="57" d="M208.5833,404.5417 C210.1667,423.6667 210.9479,446.6771 210.9375,469.6458 " fill="none" id="IExtendsChain-backto-PhysicalDeviceVariablePointersFeatures-2" style="stroke:#303030;stroke-width:3.125;stroke-dasharray:7.0,7.0;"/><polygon fill="none" points="201.3229,405.2604,206.3021,383.7604,215.8229,403.6771,201.3229,405.2604" style="stroke:#303030;stroke-width:3.125;"/><!--MD5=[33863ddef8ca3038d2d2bcf45c0fe79f]
reverse link IExtendsChain to PhysicalDeviceVariablePointersFeatures--><path codeLine="58" d="M231.1146,403.6042 C235.9375,422.9063 238.3229,446.2917 238.2813,469.6458 " fill="none" id="IExtendsChain-backto-PhysicalDeviceVariablePointersFeatures-3" style="stroke:#303030;stroke-width:3.125;stroke-dasharray:7.0,7.0;"/><polygon fill="none" points="224.1667,405.8229,224.625,383.7604,238.0313,401.3021,224.1667,405.8229" style="stroke:#303030;stroke-width:3.125;"/><!--MD5=[300eddac06d7f8e8674383060036061d]
@startuml
!theme black-knight
package "Interfaces" {
    interface IStructuredType {
        +StructureType StructureType()
    }
    
    interface IChainable {
        +BaseInStructure* PNext { get; set; }
    }
    
    interface IExtendsChain<TChain> {
    }
    
    interface IChainStart {
    }
    
    IStructuredType <|- - IChainable
    
    IChainable <|- - IExtendsChain
    IChainable <|- - IChainStart
}

package "Structures" {
    class BaseInStructure implements IChainable {
        +StructureType SType
        +BaseInStructure* PNext
        
        +BaseInStructure* IChainable.PNext { get; set; }
        
        +StructureType IStructureType.StructureType()
    }
    
    class PhysicalDeviceFeatures2 implements IChainStart {
        +StructureType SType
        +BaseInStructure* PNext
        +PhysicalDeviceFeatures Features
        
        +BaseInStructure* IChainable.PNext { get; set; }
        
        +StructureType IStructureType.StructureType()
    }
    
    IExtendsChain <|..  PhysicalDeviceFeatures2
    
    class PhysicalDeviceVariablePointersFeatures implements IExtendsChain {
        +StructureType SType
        +BaseInStructure* PNext
        +Bool32 VariablePointersStorageBuffer
        +Bool32 VariablePointers
        
        +BaseInStructure* IChainable.PNext { get; set; }
        
        +StructureType IStructureType.StructureType()
    }
    
    IExtendsChain <|.. PhysicalDeviceVariablePointersFeatures
    IExtendsChain <|.. PhysicalDeviceVariablePointersFeatures
    IExtendsChain <|.. PhysicalDeviceVariablePointersFeatures
}
@enduml

@startuml
!assume transparent dark
skinparam backgroundColor transparent
skinparam useBetaStyle false

skinparam  {
    defaultFontName   "Verdana"
    defaultFontSize   12
    defaultTextAlignment center
    shadowing false
    RoundCorner 10
    TitleFontSize 18
}

skinparam defaultFontName       "Verdana"
skinparam defaultFontSize       12
skinparam dpi                   100
skinparam shadowing             false
skinparam roundcorner           8
skinparam ParticipantPadding    40
skinparam BoxPadding            40
skinparam Padding               5
skinparam ArrowColor            #484848
skinparam stereotype {
    CBackgroundColor #3A3A3A
    CBorderColor #565656
    ABackgroundColor #33FF33
    ABorderColor #00CC00
    IBackgroundColor #FF3333
    IBorderColor #CC0000
    EBackgroundColor #FF9933
    EBorderColor #CC6600
    NBackgroundColor #0073CA
    NBorderColor #004D86
}

skinparam title {
	FontColor	                 #fefefe
	BorderColor	                 #3A3A3A
	FontSize	    	         20
	BorderRoundCorner            8
	BorderThickness 	         1
	BackgroundColor              #565656-#484848
}

skinparam legend {
	BackgroundColor #303030
	BorderColor #262626
	FontColor #fff200
}

skinparam swimlane {
	BorderColor #0060a8
	BorderThickness 2
	TitleBackgroundColor  #565656-#484848
	TitleFontColor #303030
}

skinparam activity {
		FontColor #fff200
	BorderColor #262626
	BackgroundColor #3A3A3A-#262626
	BarColor #00FF00
	StartColor #0060a8
	EndColor #0060a8
	DiamondBackgroundColor #565656-#3A3A3A
  	DiamondBorderColor #3A3A3A
  	DiamondFontColor #fefefe
}

skinparam participant {
		FontColor #fff200
	BorderColor #262626
	BackgroundColor #3A3A3A-#262626
	ParticipantBorderThickness 2
}

skinparam actor {
		FontColor #fff200
	BorderColor #262626
	BackgroundColor #3A3A3A-#262626
}

skinparam arrow {
	Thickness 3
	Color #303030
	FontColor $FGCOLOR
}

skinparam sequence {
	BorderColor #303030
	TitleFontColor #303030
	BackgroundColor transparent
	StartColor #303030
	EndColor #303030
	BoxBackgroundColor transparent
	BoxBorderColor #484848
	BoxFontColor #484848
	DelayFontColor #484848
	LifeLineBorderColor #484848
	LifeLineBorderThickness 2
	LifeLineBackgroundColor #3A3A3A
	GroupBorderColor #484848
	GroupFontColor #484848
	GroupHeaderFontColor #0060a8
	GroupBackgroundColor #484848
	GroupBodyBackgroundColor transparent
	GroupHeaderBackgroundColor transparent
	DividerBackgroundColor #484848
    DividerBorderColor #484848
    DividerBorderThickness 2
    DividerFontColor #fff200
	ReferenceBackgroundColor transparent
	ReferenceBorderColor #484848
	ReferenceFontColor #fefefe
	ReferenceHeaderBackgroundColor #484848
	StereotypeFontColor #fff200
}

skinparam partition {
	BorderColor #303030
	FontColor #3A3A3A
	BackgroundColor transparent
}

skinparam collections {
		FontColor #fff200
	BorderColor #262626
	BackgroundColor #3A3A3A-#262626
}

skinparam control {
		FontColor #fff200
	BorderColor #262626
	BackgroundColor #3A3A3A-#262626
}

skinparam entity {
		FontColor #fff200
	BorderColor #262626
	BackgroundColor #3A3A3A-#262626
}

skinparam boundary {
		FontColor #fff200
	BorderColor #262626
	BackgroundColor #3A3A3A-#262626
}

skinparam agent {
	BackgroundColor #ff8000
	BorderColor #FF9933
	FontColor #484848
}

skinparam note {
	BorderThickness 1
	BackgroundColor #0060a8
	BorderColor #004D86
	FontColor ffffff
}

skinparam artifact {
	BackgroundColor #565656-#3A3A3A
	BorderColor #fff200
	FontColor #fff200
}

skinparam component {
		FontColor #fff200
	BorderColor #262626
	BackgroundColor #3A3A3A-#262626
}

skinparam interface {
	BackgroundColor  #CC0000
	BorderColor  #ff0000
	FontColor #484848
}

skinparam storage {
	BackgroundColor #FF9933-#CC6600
  	BorderColor #CC6600
	FontColor #222222
}

skinparam node {
	BackgroundColor transparent
	BorderColor #3A3A3A
	FontColor #fff200
}

skinparam cloud {
	BackgroundColor transparent
	BorderColor #3A3A3A
	FontColor #fff200
}

skinparam database {
		FontColor #fff200
	BorderColor #262626
	BackgroundColor #3A3A3A-#262626
	BackgroundColor  transparent
}

skinparam class {
		FontColor #fff200
	BorderColor #262626
	BackgroundColor #3A3A3A-#262626
	HeaderBackgroundColor #3A3A3A-#484848
	StereotypeFontColor #484848
	BorderThickness 1
	AttributeFontColor #fff200
	AttributeFontSize 11
}

skinparam object {
		FontColor #fff200
	BorderColor #262626
	BackgroundColor #3A3A3A-#262626
	StereotypeFontColor #484848
	BorderThickness 1
	AttributeFontColor #fefefe
	AttributeFontSize 11
}

skinparam usecase {
		FontColor #fff200
	BorderColor #262626
	BackgroundColor #3A3A3A-#262626
	BorderThickness 2
	StereotypeFontColor #303030
}

skinparam rectangle {
		FontColor #fff200
	BorderColor #262626
	BackgroundColor #3A3A3A-#262626
	BackgroundColor transparent
	BorderThickness 2
	StereotypeFontColor #303030
}

skinparam package {
		FontColor #fff200
	BorderColor #262626
	BackgroundColor #3A3A3A-#262626
	BackgroundColor transparent
	BorderThickness 2
}

skinparam folder {
	BackgroundColor #565656
  	BorderColor #ff8000
	FontColor #ff8000
	BorderThickness 2
}

skinparam frame {
	BackgroundColor #565656
  	BorderColor #0060a8
	FontColor #0060a8
	BorderThickness 2
}

skinparam state {
		FontColor #fff200
	BorderColor #262626
	BackgroundColor #3A3A3A-#262626
	StartColor #0060a8
	EndColor #0060a8
	AttributeFontColor #fefefe
	AttributeFontSize 11
}

skinparam queue {
		FontColor #fff200
	BorderColor #262626
	BackgroundColor #3A3A3A-#262626
}

skinparam card {
	BackgroundColor #0073CA-#004D86
	BorderColor #004D86
	FontColor ffffff
}

skinparam file {
	BackgroundColor #565656-#3A3A3A
	BorderColor #0060a8
	FontColor #fefefe
}

skinparam stack {
		FontColor #fff200
	BorderColor #262626
	BackgroundColor #3A3A3A-#262626
}

package "Interfaces" {
    interface IStructuredType {
        +StructureType StructureType()
    }
    
    interface IChainable {
        +BaseInStructure* PNext { get; set; }
    }
    
    interface IExtendsChain<TChain> {
    }
    
    interface IChainStart {
    }
    
    IStructuredType <|- - IChainable
    
    IChainable <|- - IExtendsChain
    IChainable <|- - IChainStart
}

package "Structures" {
    class BaseInStructure implements IChainable {
        +StructureType SType
        +BaseInStructure* PNext
        
        +BaseInStructure* IChainable.PNext { get; set; }
        
        +StructureType IStructureType.StructureType()
    }
    
    class PhysicalDeviceFeatures2 implements IChainStart {
        +StructureType SType
        +BaseInStructure* PNext
        +PhysicalDeviceFeatures Features
        
        +BaseInStructure* IChainable.PNext { get; set; }
        
        +StructureType IStructureType.StructureType()
    }
    
    IExtendsChain <|..  PhysicalDeviceFeatures2
    
    class PhysicalDeviceVariablePointersFeatures implements IExtendsChain {
        +StructureType SType
        +BaseInStructure* PNext
        +Bool32 VariablePointersStorageBuffer
        +Bool32 VariablePointers
        
        +BaseInStructure* IChainable.PNext { get; set; }
        
        +StructureType IStructureType.StructureType()
    }
    
    IExtendsChain <|.. PhysicalDeviceVariablePointersFeatures
    IExtendsChain <|.. PhysicalDeviceVariablePointersFeatures
    IExtendsChain <|.. PhysicalDeviceVariablePointersFeatures
}
@enduml

PlantUML version 1.2021.11(Sat Oct 02 14:26:11 BST 2021)
(GPL source distribution)
Java Runtime: OpenJDK Runtime Environment
JVM: Dynamic Code Evolution 64-Bit Server VM
Default Encoding: Cp1252
Language: en
Country: GB
--></g></svg>