<?xml version="1.0" encoding="utf-8"?>
<!-- Generator: Adobe Illustrator 22.0.1, SVG Export Plug-In . SVG Version: 6.00 Build 0)  -->
<svg version="1.1" id="Vulkan" xmlns="http://www.w3.org/2000/svg" xmlns:xlink="http://www.w3.org/1999/xlink" x="0px" y="0px"
	 width="1100px" height="500px" viewBox="0 0 1100 500" style="enable-background:new 0 0 1100 500;" xml:space="preserve">
<style type="text/css">
	.st0{fill:#ABD038;}
	.st1{fill:#EE332D;}
	.st2{fill:#F2BA1A;}
	.st3{fill:#3DAE2B;}
	.st4{fill:#010101;}
</style>
<path class="st0" d="M477.9,98.3c14.6-22.8,31.8-49.8,37.4-58.6c-63.9,4.8-123,21.4-173,46.7c7.7,14.4,17.7,32.5,25.4,46.5
	c26.5-9.9,55.3-16.7,85.7-19.6C463.4,112.3,472.4,106.8,477.9,98.3z"/>
<path class="st1" d="M711.2,190.5c13.9,6.6,27.4,8.6,46.3,8.6c34.6,0,99.9,0.1,135.8,0.2c0,0,0,0,0,0
	c-31.6-52.5-85.8-96.2-153.7-124.8c-24.1,16.1-93.1,62.3-104.1,69.6C679.1,165.4,697.5,184,711.2,190.5z"/>
<path class="st2" d="M528.5,38.9c-1.9,5.6-18.9,56.6-24.3,73.1c27.4,1.2,53.8,5.4,78.5,12.3c14.7,4.1,30.5,2.6,44.1-4.4l99.6-50.8
	C674.9,49.4,616.3,38.2,554,38.2C545.4,38.2,536.9,38.5,528.5,38.9z"/>
<path class="st3" d="M205.6,212.9l32.3,0.1c8.7,0,17-3.6,22.9-10c17.5-19.1,39-35.9,63.7-49.8c8.8-4.9,13.7-14.8,12.1-24.7
	c-2.4-15.6-5-31.7-5.7-36C274.6,123,230.8,164.6,205.6,212.9z"/>
<g>
	<polygon class="st4" points="987.9,239.5 980.5,239.5 980.5,258.8 974,258.8 974,239.5 966.5,239.5 966.5,233.9 987.9,233.9 
		987.9,239.5 	"/>
	<polyline class="st4" points="1018.6,233.9 1018.6,258.8 1012.5,258.8 1012.5,239.9 1012.4,239.9 1007.2,258.8 1002.2,258.8 
		997,239.9 996.9,239.9 996.9,258.8 990.8,258.8 990.8,233.9 990.8,233.9 1000.4,233.9 1004.7,250.5 1004.7,250.5 1009,233.9 	"/>
</g>
<g>
	<path class="st4" d="M216.7,260.3c-7.9-9.2-17.6-16.5-29.1-21.8c-11.4-5.4-24.4-8.1-38.8-8.1c-14.4,0-27.3,2.7-38.8,8.1
		c-11.4,5.4-21.1,12.7-29.1,21.8c-7.9,9.2-14,19.9-18.2,32.1c-4.2,12.2-6.4,25.2-6.4,38.8c0,13.8,2.1,26.9,6.4,39.1
		c4.2,12.2,10.3,22.9,18.2,32.1c7.9,9.2,17.6,16.4,29.1,21.7c11.4,5.3,24.4,8,38.8,8c14.4,0,27.3-2.7,38.8-8
		c11.4-5.3,21.1-12.5,29.1-21.7c7.9-9.2,14-19.9,18.2-32.1c4.2-12.2,6.4-25.3,6.4-39.1c0-13.7-2.1-26.6-6.4-38.8
		C230.7,280.2,224.6,269.5,216.7,260.3z M204.1,358.2c-2.3,8.8-5.7,16.7-10.4,23.6c-4.7,6.9-10.8,12.5-18.2,16.6
		c-7.5,4.1-16.4,6.2-26.6,6.2c-10.3,0-19.1-2.1-26.6-6.2c-7.5-4.1-13.6-9.7-18.2-16.6c-4.7-6.9-8.2-14.8-10.4-23.6
		c-2.3-8.8-3.4-17.8-3.4-27s1.1-18.2,3.4-27c2.3-8.8,5.7-16.7,10.4-23.6c4.7-6.9,10.8-12.4,18.2-16.6c7.5-4.1,16.4-6.2,26.6-6.2
		c10.3,0,19.1,2.1,26.6,6.2c7.5,4.1,13.6,9.7,18.2,16.6c4.7,6.9,8.2,14.8,10.4,23.6c2.3,8.8,3.4,17.8,3.4,27
		S206.3,349.4,204.1,358.2z"/>
	<path class="st4" d="M384.5,306c-5.4-6.7-12.2-12-20.4-15.9c-8.2-3.9-17.8-5.8-28.8-5.8c-9,0-17.4,1.8-25.1,5.3
		c-7.8,3.5-13.8,9.3-18.1,17.4h-0.5V288h-29.2v191h30.8v-69.6h0.5c2.3,3.8,5.3,7.1,8.8,9.8c3.5,2.8,7.3,5.1,11.5,6.9
		c4.1,1.8,8.5,3.1,13,3.9c4.5,0.8,9,1.2,13.5,1.2c10.3,0,19.2-2,26.8-6.1c7.6-4,13.8-9.4,18.8-16.2c5-6.7,8.7-14.5,11.1-23.3
		c2.4-8.8,3.6-17.9,3.6-27.3c0-10.3-1.4-19.9-4.1-28.9C394,320.6,389.9,312.7,384.5,306z M367.9,375.8c-1.4,5.8-3.6,11.1-6.8,15.7
		c-3.2,4.6-7.2,8.3-12,11.2c-4.9,2.9-10.8,4.3-17.8,4.3c-6.3,0-11.9-1.3-16.6-3.8c-4.8-2.5-8.9-5.9-12.3-10.3
		c-3.4-4.3-6-9.5-7.7-15.5c-1.7-6-2.6-12.5-2.6-19.6c0-14.9,3.3-26.9,9.9-35.9c6.6-9,16.4-13.5,29.3-13.5c6.3,0,11.9,1.4,16.8,4.2
		c4.9,2.8,8.9,6.5,12.2,11.1s5.7,9.8,7.3,15.8c1.6,5.9,2.4,12.1,2.4,18.3C369.9,364,369.3,370,367.9,375.8z"/>
	<path class="st4" d="M531.8,309.3c-5.8-7.6-13-13.6-21.8-18.2c-8.7-4.6-18.6-6.9-29.6-6.9c-10.5,0-19.8,2-28.1,5.9
		c-8.3,4-15.4,9.3-21.2,16.1c-5.9,6.7-10.4,14.6-13.5,23.5c-3.2,8.9-4.7,18.3-4.7,28.2c0,10.8,1.5,20.7,4.5,29.7
		c3,9,7.4,16.7,13.2,23.2c5.9,6.5,13,11.5,21.5,15.1c8.5,3.6,18.2,5.4,29.2,5.4c7.6,0,14.8-1,21.8-3.1c6.9-2.1,13.2-5.1,18.8-9.2
		c5.6-4,10.4-9,14.3-15c4-5.9,6.8-12.7,8.4-20.2h-29.2c-2.7,7.7-6.8,13.5-12.3,17.4c-5.5,3.9-12.8,5.8-21.8,5.8
		c-6.5,0-12.1-1.1-16.8-3.4c-4.7-2.2-8.6-5.3-11.6-9c-3.1-3.8-5.4-8.2-6.9-13.2c-1.5-5-2.3-10.3-2.3-15.7h102.7
		c1.3-10.4,0.6-20.5-2-30.4C541.7,325.6,537.5,316.9,531.8,309.3z M443.6,345.5c0.2-5.2,1.2-10.1,3.1-14.6c1.9-4.5,4.4-8.4,7.6-11.7
		c3.2-3.3,6.9-5.9,11.4-7.8c4.4-1.9,9.3-2.8,14.7-2.8c5.2,0,10,1,14.2,3.1c4.2,2.1,7.8,4.8,10.8,8.1c3,3.3,5.3,7.2,7,11.7
		c1.7,4.5,2.7,9.2,3.1,14H443.6z"/>
	<path class="st4" d="M673.3,296.1c-8.8-7.9-20.9-11.9-36.2-11.9c-9.2,0-17.6,2.2-25.1,6.6c-7.6,4.4-13.7,10.5-18.4,18.2l-0.5-0.5
		V288h-29.2v139.5h30.8v-82.3c0-5,0.8-9.8,2.4-14.3c1.6-4.5,3.9-8.4,6.8-11.7c2.9-3.3,6.4-5.9,10.5-7.8c4.1-1.9,8.8-2.8,14.1-2.8
		c9.2,0,16,2.5,20.3,7.4c4.3,4.9,6.7,12.9,7,23.9v87.7h30.8v-95.8C686.6,315.9,682.1,304,673.3,296.1z"/>
	<path class="st4" d="M840.7,352.1c-1.5,12-5.8,21.9-12.6,29.4c-6.7,7.3-16.2,11.1-28.2,11.1c-9,0-16.6-1.7-22.8-5.2
		c-6.2-3.4-11.3-8-15.2-13.7c-3.9-5.7-6.8-12.3-8.6-19.6c-1.8-7.3-2.7-14.9-2.7-22.6c0-8.1,0.9-16,2.7-23.6
		c1.8-7.5,4.7-14.2,8.6-20.1c3.9-5.8,8.9-10.4,15.2-13.9c6.2-3.4,13.9-5.2,22.8-5.2c4.8,0,9.6,0.8,14,2.4c4.4,1.6,8.5,3.8,12,6.7
		c3.5,2.8,6.5,6.2,8.8,9.9c2.3,3.7,3.8,7.8,4.5,12.3l0.3,1.9h44.8l-0.3-2.5c-1.3-11.2-4.4-21.3-9.3-30c-4.9-8.7-11.2-16.1-18.8-22
		c-7.5-5.9-16.1-10.4-25.6-13.5c-9.5-3.1-19.7-4.6-30.3-4.6c-14.9,0-28.5,2.6-40.2,7.9c-11.7,5.2-21.8,12.6-30,21.8
		c-8.1,9.2-14.4,20.1-18.8,32.5c-4.3,12.4-6.5,25.8-6.5,39.9c0,13.8,2.2,27,6.5,39.2c4.3,12.2,10.6,23,18.8,32
		c8.1,9,18.2,16.3,30,21.5c11.7,5.2,25.3,7.9,40.2,7.9c11.9,0,23-1.9,32.9-5.6c10-3.7,18.8-9.1,26.2-16c7.4-6.9,13.5-15.3,18-25.1
		c4.5-9.7,7.3-20.8,8.4-32.8l0.2-2.4H841L840.7,352.1z"/>
	<polygon class="st4" points="948.6,388.1 948.6,233.9 902.4,233.9 902.4,427.5 1040.9,427.5 1040.9,388.1 	"/>
</g>
</svg>
