<?xml version="1.0" encoding="utf-8"?>
<!-- Generator: Adobe Illustrator 18.0.0, SVG Export Plug-In . SVG Version: 6.00 Build 0)  -->
<!DOCTYPE svg PUBLIC "-//W3C//DTD SVG 1.1 Tiny//EN" "http://www.w3.org/Graphics/SVG/1.1/DTD/svg11-tiny.dtd">
<svg version="1.1" baseProfile="tiny" xmlns="http://www.w3.org/2000/svg" xmlns:xlink="http://www.w3.org/1999/xlink" x="0px"
	 y="0px" width="1400px" height="500px" viewBox="0 0 1400 500" xml:space="preserve">
<g id="Vulkan">
	<g>
		<g>
			<path fill="#782D8E" d="M281,243.7c4.2-12.8,10.5-24.1,18.8-34c8.4-9.8,18.8-17.7,31.2-23.6c12.5-5.9,27-8.8,43.5-8.8
				c16.5,0,31,2.9,43.5,8.8c12.5,5.9,22.9,13.7,31.2,23.6c8.4,9.8,14.6,21.2,18.8,34c4.2,12.8,6.3,26.1,6.3,39.9
				c0,13.8-2.1,27.1-6.3,39.9c-4.2,12.8-10.5,24.1-18.8,34c-8.4,9.8-18.8,17.7-31.2,23.4c-12.5,5.8-27,8.7-43.5,8.7
				c-16.5,0-31-2.9-43.5-8.7c-12.5-5.8-22.9-13.6-31.2-23.4c-8.4-9.9-14.6-21.2-18.8-34c-4.2-12.8-6.3-26.1-6.3-39.9
				C274.7,269.8,276.8,256.5,281,243.7z M306.5,314c2.7,10,7,18.9,12.9,26.9c5.8,8,13.3,14.4,22.5,19.2c9.2,4.8,20.1,7.2,32.7,7.2
				c12.7,0,23.6-2.4,32.7-7.2c9.2-4.8,16.7-11.2,22.5-19.2c5.8-8,10.1-16.9,12.9-26.9c2.7-10,4.1-20.1,4.1-30.3s-1.4-20.3-4.1-30.3
				c-2.7-10-7-18.9-12.9-26.9c-5.8-8-13.4-14.4-22.5-19.2c-9.2-4.8-20.1-7.3-32.7-7.3c-12.7,0-23.6,2.4-32.7,7.3
				c-9.2,4.8-16.7,11.2-22.5,19.2c-5.8,8-10.1,16.9-12.9,26.9c-2.7,10-4.1,20-4.1,30.3S303.7,304,306.5,314z"/>
		</g>
		<g>
			<path fill="#782D8E" d="M493.8,256.9h21v17.3h0.5c3.5-7.1,8.9-12.3,16.3-15.5c7.4-3.2,15.6-4.8,24.5-4.8c9.9,0,18.5,1.8,25.9,5.4
				c7.3,3.6,13.4,8.5,18.3,14.7c4.9,6.2,8.5,13.3,11,21.4c2.5,8.1,3.7,16.7,3.7,25.7c0,9.1-1.2,17.7-3.6,25.7
				c-2.4,8.1-6,15.1-10.9,21.2c-4.9,6-11,10.8-18.3,14.4c-7.3,3.5-15.9,5.3-25.6,5.3c-3.3,0-6.9-0.3-10.6-1
				c-3.8-0.7-7.6-1.8-11.4-3.3c-3.8-1.6-7.4-3.6-10.8-6.2c-3.4-2.6-6.2-5.7-8.5-9.5h-0.5v66.1h-21V256.9z M592.9,319.8
				c0-5.9-0.8-11.8-2.4-17.4c-1.6-5.7-4-10.8-7.2-15.2c-3.2-4.5-7.3-8-12.4-10.6c-5-2.6-10.9-4-17.7-4c-7.1,0-13.1,1.4-18.1,4.2
				c-5,2.8-9,6.5-12.1,11c-3.1,4.5-5.4,9.7-6.8,15.5c-1.4,5.8-2.1,11.6-2.1,17.6c0,6.3,0.7,12.3,2.2,18.2c1.5,5.9,3.8,11,7.1,15.5
				c3.2,4.5,7.4,8,12.5,10.8c5.1,2.7,11.3,4.1,18.6,4.1c7.1,0,13.1-1.4,18.1-4.2c5-2.8,8.9-6.5,11.9-11.1c3-4.6,5.1-9.9,6.4-15.8
				C592.2,332.2,592.9,326.1,592.9,319.8z"/>
			<path fill="#782D8E" d="M746.6,344.3c-2.8,14.2-9,25-18.6,32.4c-9.6,7.4-21.7,11.1-36.2,11.1c-10.3,0-19.1-1.7-26.7-5.1
				c-7.5-3.4-13.9-8-19-14c-5.1-5.9-9-13-11.5-21.3c-2.6-8.3-4-17.2-4.3-27c0-9.6,1.5-18.4,4.5-26.6c3-8.2,7.1-15.2,12.5-21.2
				c5.4-5.9,11.7-10.6,19.1-13.9c7.3-3.3,15.4-5,24.1-5c11.4,0,20.8,2.4,28.3,7.1c7.5,4.7,13.5,10.7,18.1,17.9
				c4.5,7.3,7.7,15.2,9.4,23.8c1.7,8.6,2.4,16.8,2.1,24.5h-95.8c-0.2,5.6,0.5,10.9,2,16c1.5,5,3.9,9.5,7.2,13.4
				c3.3,3.9,7.5,7,12.6,9.3c5.1,2.3,11.1,3.5,18.1,3.5c8.7,0,16-2.1,21.8-6.2c5.8-4.1,9.6-10.4,11.4-18.8H746.6z M726.1,308.7
				c-0.3-5-1.4-9.7-3.3-14.1c-1.9-4.5-4.5-8.3-7.7-11.5c-3.2-3.2-7.1-5.8-11.5-7.7c-4.5-1.9-9.2-2.8-14.4-2.8
				c-5.4,0-10.4,1-14.7,2.8c-4.4,1.9-8.1,4.5-11.3,7.8c-3.1,3.3-5.6,7.1-7.4,11.5c-1.8,4.4-2.9,9-3.2,14H726.1z"/>
			<path fill="#782D8E" d="M768.6,256.9h19.8v20.3h0.5c4.5-7.9,10.2-13.8,17.2-17.6c7-3.8,15.1-5.7,24.4-5.7c8.4,0,15.4,1.2,21,3.5
				c5.6,2.3,10.1,5.5,13.6,9.7c3.5,4.1,5.9,9,7.3,14.7c1.4,5.7,2.1,12,2.1,18.9v84.2h-21v-86.6c0-7.9-2.3-14.2-6.9-18.8
				c-4.6-4.6-11-6.9-19.1-6.9c-6.4,0-12,1-16.7,3c-4.7,2-8.6,4.8-11.8,8.4c-3.1,3.6-5.5,7.9-7.1,12.7c-1.6,4.9-2.4,10.2-2.4,16v72.3
				h-21V256.9z"/>
			<path fill="#782D8E" d="M1090.1,181.9h109.5c9.1,0,17.3,1.5,24.6,4.4c7.3,2.9,13.6,7,18.8,12.1c5.2,5.1,9.2,11.1,11.9,17.9
				c2.7,6.8,4.1,14,4.1,21.6c0,11.9-2.5,22.3-7.5,31c-5,8.7-13.2,15.4-24.6,19.9v0.6c5.5,1.5,10,3.8,13.7,7
				c3.6,3.1,6.5,6.9,8.8,11.2c2.3,4.4,3.9,9.1,5,14.1c1,5,1.8,10.1,2.1,15.2c0.2,3.2,0.4,7,0.6,11.4c0.2,4.4,0.5,8.8,1,13.2
				c0.5,4.5,1.2,8.8,2.3,12.9c1,4.2,2.6,7.7,4.7,10.5h-44.6c-1.3-3.2-2.3-6.8-3-10.7c-0.7-3.9-1.2-8-1.7-12.2
				c-0.5-4.3-0.9-8.6-1.1-13.1c-0.3-4.5-0.7-8.7-1.3-12.7c-1.5-10.6-4.7-18.4-9.7-23.3c-4.9-4.9-13-7.4-24.2-7.4h-44.6v79.3h-44.6
				V181.9z M1134.8,273.8h48.9c10,0,17.7-2.3,22.9-6.8c5.2-4.5,7.8-11.9,7.8-22.2c0-9.9-2.6-17-7.8-21.5c-5.2-4.5-12.8-6.7-22.9-6.7
				h-48.9V273.8z"/>
		</g>
		<path fill="#782D8E" d="M225.7,249.9c26.3-93.1,212.4-137.5,415.7-99.2c122,23,216,74.3,286.9,122.6
			c-53.1-77.4-187.3-169.1-373.3-194.4C332.8,48.6,117.9,99.2,96.5,197.4c-15.4,71,74.4,147.9,209.2,196.2
			C243.9,349.6,212.1,298,225.7,249.9z"/>
		<polygon fill="#782D8E" points="1013.7,288.8 955,288.8 887.9,384.9 938.3,384.9 983.5,318 1027.8,384.9 1081,384.9 		"/>
		<path fill="#782D8E" d="M973,273.7h40.7l61.7-91.8h-48.9l-40.6,63.9C921,153.6,825.6,116.6,740.1,104.3
			c99.2,41.2,176.1,104,215,169.4H973z"/>
		<g>
			<polygon fill="#782D8E" points="1302.3,365.7 1294.9,365.7 1294.9,385 1288.5,385 1288.5,365.7 1281,365.7 1281,360.1 
				1302.3,360.1 1302.3,365.7 			"/>
			<polygon fill="#782D8E" points="1305.2,360.1 1314.8,360.1 1319,376.7 1319.1,376.7 1323.4,360.1 1332.9,360.1 1332.9,385 
				1326.8,385 1326.8,366.1 1326.8,366.1 1321.5,385 1316.6,385 1311.4,366.1 1311.3,366.1 1311.3,385 1305.2,385 1305.2,360.1 			
				"/>
		</g>
	</g>
</g>
<g id="Layer_5">
</g>
</svg>
