<?xml version="1.0" encoding="UTF-8"?>
<svg version="1.1" viewBox="0 0 196 196" xmlns="http://www.w3.org/2000/svg">
<defs>
<linearGradient id="d" x1="50%" x2="50%" y1="50%" y2="100%">
<stop stop-color="#fff" offset="0"/>
<stop stop-color="#E9E5E5" offset="1"/>
</linearGradient>
<linearGradient id="c" x1="50%" x2="50%" y2="87.052%">
<stop stop-color="#0339F1" offset="0"/>
<stop stop-color="#01ADE5" offset="1"/>
</linearGradient>
<linearGradient id="b" x1="14.011%" x2="73.603%" y1="9.5347%" y2="75.34%">
<stop stop-color="#0756EE" offset="0"/>
<stop stop-color="#00A3F5" offset=".37448"/>
<stop stop-color="#18B5B6" offset=".71708"/>
<stop stop-color="#80DF43" offset="1"/>
</linearGradient>
<linearGradient id="a" x1="13.017%" x2="86.649%" y1="3.0728%" y2="90.776%">
<stop stop-color="#20BBA6" offset="0"/>
<stop stop-color="#9BEC23" offset=".4988"/>
<stop stop-color="#D9EF35" offset="1"/>
</linearGradient>
</defs>
<g fill-rule="evenodd">
<rect x="1" y="1" width="194" height="194" rx="45" fill="url(#d)" stroke="#D9D9D9"/>
<path d="m32.882 137.54h-4.5633v-60.979h4.5633v60.979zm-2.3466-75.927c-1.9244 0-3.5158-1.5265-3.5158-3.4509 0-1.9812 1.5833-3.5158 3.5158-3.5158 1.9812 0 3.5564 1.5265 3.5564 3.5158 0 1.9244-1.5752 3.4509-3.5564 3.4509z" fill="url(#c)"/>
<path d="m77.205 138.73c-22.313 0-36.409-16.248-36.409-42.076 0-25.699 14.161-42.011 36.409-42.011s36.401 16.313 36.401 42.011c0 25.829-14.096 42.076-36.401 42.076zm0-79.89c-19.422 0-31.821 14.664-31.821 37.813 0 23.166 12.456 37.887 31.821 37.887 19.422 0 31.821-14.721 31.821-37.887 0-23.157-12.399-37.813-31.821-37.813z" fill="url(#b)"/>
<path d="m146.1 138.73c-16.751 0-28.76-9.4595-29.442-22.987h4.474c0.68206 11.092 11.1 18.854 25.309 18.854 13.868 0 23.547-7.8761 23.547-18.513 0-8.5582-5.7731-13.479-19.471-16.93l-9.6787-2.3791c-15.111-3.8569-21.972-9.971-21.972-20.21 0-12.74 11.895-21.915 26.787-21.915 15.395 0 26.892 9.0616 27.404 21.063h-4.474c-0.62522-9.7924-10.19-16.93-23.044-16.93-12.293 0-22.086 7.3646-22.086 17.668 0 8.1603 6.0005 12.854 19.13 16.134l9.1184 2.3222c15.793 3.9056 22.873 9.971 22.873 20.835 0 13.527-11.376 22.987-28.476 22.987z" fill="url(#a)"/>
</g>
</svg>
